<?xml version="1.0" standalone="no"?>
<!DOCTYPE svg PUBLIC "-//W3C//DTD SVG 20010904//EN"
 "http://www.w3.org/TR/2001/REC-SVG-20010904/DTD/svg10.dtd">
<svg version="1.0" xmlns="http://www.w3.org/2000/svg"
 width="500.000000pt" height="574.000000pt" viewBox="0 0 500.000000 574.000000"
 preserveAspectRatio="xMidYMid meet">

<g transform="translate(0.000000,574.000000) scale(0.100000,-0.100000)"
fill="#000000" stroke="none">
<path d="M0 2870 l0 -2870 2500 0 2500 0 0 2870 0 2870 -2500 0 -2500 0 0
-2870z m1591 2157 c115 -28 190 -93 226 -200 17 -49 18 -153 21 -1637 1 -977
-1 -1618 -7 -1671 -16 -140 -70 -222 -180 -273 -43 -20 -65 -21 -389 -24 -293
-3 -351 -1 -399 13 -75 22 -126 56 -162 109 -63 90 -61 61 -61 1153 l0 993
300 0 300 0 0 -185 0 -185 -120 0 -120 0 0 -770 0 -770 235 0 235 0 0 1545 0
1545 -235 0 -235 0 0 -295 0 -295 -181 0 -180 0 3 363 3 362 26 55 c44 93 116
151 212 170 73 14 645 11 708 -3z m789 -2152 l0 -2165 -870 0 -870 0 0 200 0
200 670 0 670 0 0 1958 c0 1077 3 1962 7 1965 3 4 93 7 200 7 l193 0 0 -2165z
m530 200 l0 -1965 675 0 675 0 0 -200 0 -200 -870 0 -870 0 0 2165 0 2165 195
0 195 0 0 -1965z m1151 1941 c99 -37 166 -123 188 -241 7 -34 11 -190 11 -377
l0 -318 -180 0 -180 0 0 295 0 295 -235 0 -235 0 0 -1545 0 -1545 235 0 235 0
0 770 0 770 -120 0 -120 0 0 185 0 185 298 -2 297 -3 0 -1005 c0 -943 -1
-1008 -18 -1057 -29 -83 -67 -127 -144 -165 l-68 -33 -365 0 c-330 0 -369 2
-405 18 -67 30 -115 68 -141 113 -55 94 -54 45 -54 1770 0 1105 3 1608 11
1649 26 141 112 231 244 256 22 4 189 6 370 5 286 -2 336 -4 376 -20z"/>
</g>
</svg>
